<svg xmlns="http://www.w3.org/2000/svg" width="84" height="84" fill="none"><path fill="url(#a)" d="M41.758 7.203a5.249 5.249 0 0 1 7.424-.787L66.308 20.4a5.25 5.25 0 0 1 1.312 6.537A15.752 15.752 0 0 0 63 26.25h-1.575l1.565-1.785-9.02-7.366-7.44 9.156h-6.767l10.138-12.474-4.042-3.302-12.59 15.771h-6.72L41.76 7.203ZM55.126 52.5a2.625 2.625 0 0 0 0 5.25h5.25a2.625 2.625 0 0 0 0-5.25h-5.25ZM15.75 28.875a2.625 2.625 0 0 1 2.625-2.625h2.93L25.477 21h-7.103a7.875 7.875 0 0 0-7.875 7.875v31.5A13.125 13.125 0 0 0 23.625 73.5H63A10.5 10.5 0 0 0 73.5 63V42A10.5 10.5 0 0 0 63 31.5H18.375a2.625 2.625 0 0 1-2.625-2.625Zm0 31.5V36.304a7.898 7.898 0 0 0 2.625.446H63A5.25 5.25 0 0 1 68.25 42v21A5.25 5.25 0 0 1 63 68.25H23.625a7.875 7.875 0 0 1-7.875-7.875Z"/><defs><linearGradient id="a" x1="10.5" x2="73.5" y1="39.365" y2="39.365" gradientUnits="userSpaceOnUse"><stop stop-color="#2AF598"/><stop offset="1" stop-color="#009EFD"/></linearGradient></defs></svg>