<svg xmlns="http://www.w3.org/2000/svg" width="84" height="84" fill="none"><path stroke="url(#a)" stroke-linecap="round" stroke-linejoin="round" stroke-width="4" d="M38.602 8.89a7 7 0 0 1 6.797 0L71.7 23.499a3.5 3.5 0 0 1 1.799 3.059V55.38a7 7 0 0 1-3.602 6.118l-24.5 13.616a7 7 0 0 1-6.797 0l-24.5-13.616a7 7 0 0 1-3.601-6.114V26.558a3.5 3.5 0 0 1 1.799-3.059L38.605 8.89h-.003Z"/><path stroke="url(#b)" stroke-linecap="round" stroke-linejoin="round" stroke-width="4" d="m26.25 15.75 31.5 17.5V45.5M21 43.148 31.5 49"/><path stroke="url(#c)" stroke-linejoin="round" stroke-width="4" d="M10.5 24.5 42 42m0 0 31.5-17.5M42 42v35"/><defs><linearGradient id="a" x1="10.5" x2="73.5" y1="42.002" y2="42.002" gradientUnits="userSpaceOnUse"><stop stop-color="#2AF598"/><stop offset="1" stop-color="#009EFD"/></linearGradient><linearGradient id="b" x1="21" x2="57.75" y1="32.375" y2="32.375" gradientUnits="userSpaceOnUse"><stop stop-color="#2AF598"/><stop offset="1" stop-color="#009EFD"/></linearGradient><linearGradient id="c" x1="10.5" x2="73.5" y1="50.75" y2="50.75" gradientUnits="userSpaceOnUse"><stop stop-color="#2AF598"/><stop offset="1" stop-color="#009EFD"/></linearGradient></defs></svg>