<svg xmlns="http://www.w3.org/2000/svg" width="32" height="38" fill="none"><g clip-path="url(#a)"><path fill="#fff" d="M8 8.714c0-4.418 3.579-8 8-8 4.421 0 8 3.582 8 8v3.429h4.571A3.43 3.43 0 0 1 32 15.57V30.43a6.859 6.859 0 0 1-6.857 6.857H6.857A6.858 6.858 0 0 1 0 30.429V15.572a3.429 3.429 0 0 1 3.429-3.43H8V8.715Zm3.429 3.429h9.142V8.714A4.573 4.573 0 0 0 16 4.143a4.573 4.573 0 0 0-4.571 4.571v3.429ZM9.714 19a1.71 1.71 0 0 0 1.715-1.714 1.71 1.71 0 0 0-1.715-1.715A1.71 1.71 0 0 0 8 17.287C8 18.236 8.764 19 9.714 19Zm12.572-3.428a1.71 1.71 0 0 0-1.715 1.714c0 .95.765 1.714 1.715 1.714A1.71 1.71 0 0 0 24 17.286a1.71 1.71 0 0 0-1.714-1.715Z"/></g><defs><clipPath id="a"><path fill="#fff" d="M0 .714h32v36.571H0z"/></clipPath></defs></svg>