<svg xmlns="http://www.w3.org/2000/svg" width="68" height="68" fill="none"><path stroke="url(#a)" stroke-linecap="round" stroke-linejoin="round" stroke-width="4" d="M37.188 28.688C37.188 34 34 41.438 34 41.438m1.063-10.626s3.187-8.5-4.25-14.875c-7.438-6.374-19.125-4.25-19.125-4.25s0 8.5 6.374 14.876c6.375 6.375 17 4.25 17 4.25Zm4.25-6.375s-3.188-8.5 4.25-14.874C51 3.188 62.686 5.313 62.686 5.313s0 8.5-6.374 14.875c-6.376 6.375-17 4.25-17 4.25Zm-17 14.875h27.625s2.124 19.126-13.813 19.126c-15.938 0-13.813-19.126-13.813-19.126Z"/><defs><linearGradient id="a" x1="11.688" x2="62.688" y1="31.705" y2="31.705" gradientUnits="userSpaceOnUse"><stop stop-color="#2AF598"/><stop offset="1" stop-color="#009EFD"/></linearGradient></defs></svg>