<svg xmlns="http://www.w3.org/2000/svg" width="84" height="84" fill="none" viewBox="0 0 84 83"><path fill="url(#a)" d="M69.783 28H73.5a7 7 0 0 1 7 7v14a7 7 0 0 1-7 7h-3.717A28.004 28.004 0 0 1 42 80.5v-7a21 21 0 0 0 21-21v-21a21 21 0 1 0-42 0V56H10.5a7 7 0 0 1-7-7V35a7 7 0 0 1 7-7h3.717a28.003 28.003 0 0 1 55.566 0ZM10.5 35v14H14V35h-3.5ZM70 35v14h3.5V35H70ZM27.16 55.248l3.71-5.936A20.902 20.902 0 0 0 42 52.5a20.902 20.902 0 0 0 11.13-3.188l3.71 5.936A27.87 27.87 0 0 1 42 59.5a27.87 27.87 0 0 1-14.84-4.252Z"/><defs><linearGradient id="a" x1="3.5" x2="80.5" y1="42.002" y2="42.002" gradientUnits="userSpaceOnUse"><stop stop-color="#2AF598"/><stop offset="1" stop-color="#009EFD"/></linearGradient></defs></svg>