<svg width="18" height="18" viewBox="0 0 18 18" xmlns="http://www.w3.org/2000/svg" xmlns:xlink="http://www.w3.org/1999/xlink">
    <g id="g1">
        <path id="path1" fill="#ffffff" stroke="none" d="M 8.625 0 C 8.9234 0 9.2095 0.11853 9.4205 0.3295 C 9.6315 0.54048 9.75 0.82663 9.75 1.125 L 9.75 7.5 L 16.125 7.5 C 16.423401 7.5 16.709499 7.6185 16.9205 7.8295 C 17.1315 8.040501 17.25 8.326599 17.25 8.625 C 17.25 8.923401 17.1315 9.209499 16.9205 9.4205 C 16.709499 9.6315 16.423401 9.75 16.125 9.75 L 9.75 9.75 L 9.75 16.125 C 9.75 16.423401 9.6315 16.709499 9.4205 16.9205 C 9.2095 17.1315 8.9234 17.25 8.625 17.25 C 8.3266 17.25 8.0405 17.1315 7.8295 16.9205 C 7.6185 16.709499 7.5 16.423401 7.5 16.125 L 7.5 9.75 L 1.125 9.75 C 0.82663 9.75 0.54048 9.6315 0.3295 9.4205 C 0.11853 9.209499 0 8.923401 0 8.625 C 0 8.326599 0.11853 8.040501 0.3295 7.8295 C 0.54048 7.6185 0.82663 7.5 1.125 7.5 L 7.5 7.5 L 7.5 1.125 C 7.5 0.82663 7.6185 0.54048 7.8295 0.3295 C 8.0405 0.11853 8.3266 0 8.625 0 Z"/>
    </g>
</svg>
